{"glyphs":{"0":{"ha":769,"x_min":0,"x_max":0,"o":"m 521 978 b 438 1047 518 1011 503 1047 b 369 0 -86 1047 -68 0 b 521 978 826 0 810 972 z m 382 250 b 407 910 207 250 160 797 b 382 250 569 883 579 250 z "},"1":{"ha":347,"x_min":0,"x_max":0,"o":"m 133 1022 b 42 846 133 1022 106 919 b 133 799 42 846 78 797 l 133 25 b 221 0 133 8 178 0 b 306 25 264 0 306 8 l 306 1022 b 218 1047 306 1039 261 1047 b 133 1022 175 1047 133 1039 z "},"2":{"ha":739,"x_min":0,"x_max":0,"o":"m 596 289 b 453 215 596 289 542 215 b 321 235 389 215 351 225 b 685 790 410 372 685 499 b 393 1046 685 960 540 1046 b 76 757 236 1046 76 950 b 250 578 76 664 139 578 b 408 746 418 578 408 746 b 308 814 368 740 308 742 b 407 921 308 885 357 921 b 517 794 461 921 517 879 b 168 256 517 538 275 425 b 154 -3 1 231 4 -3 b 274 72 213 -3 251 31 b 500 -3 367 44 404 -3 b 596 289 751 -3 736 289 z "},"3":{"ha":731,"x_min":0,"x_max":0,"o":"m 538 643 b 356 1044 700 772 633 1044 b 186 703 11 1044 -8 703 b 349 829 308 703 349 829 b 364 954 253 829 267 954 b 381 690 475 954 476 790 b 358 690 374 690 367 690 b 321 578 164 690 172 578 b 417 588 356 578 388 582 b 400 218 564 485 558 218 b 440 340 290 218 263 340 b 299 501 440 340 493 501 b 339 0 -31 501 -71 0 b 538 643 725 0 792 489 z "},"4":{"ha":781,"x_min":0,"x_max":0,"o":"m 565 1022 l 565 522 b 436 546 529 531 486 539 b 219 1031 518 744 428 1031 b 69 865 63 1031 69 865 b 249 558 193 886 294 706 b 151 358 -11 551 -4 358 b 375 450 250 358 324 394 b 565 411 433 447 496 436 l 565 25 b 653 0 565 8 610 0 b 739 25 696 0 739 8 l 739 1022 b 651 1047 739 1039 694 1047 b 565 1022 608 1047 565 1039 z "},"5":{"ha":758,"x_min":0,"x_max":0,"o":"m 272 731 b 288 875 278 769 285 822 b 479 832 336 850 400 832 b 690 1047 728 832 744 971 b 490 1003 646 1014 572 1003 b 274 1022 418 1003 340 1011 b 194 1092 261 1064 236 1092 b 176 976 150 1092 142 1036 b 96 690 157 894 122 753 b 149 622 75 640 129 618 b 257 636 189 632 225 636 b 353 250 569 636 571 250 b 397 358 246 250 236 358 b 263 554 397 358 463 554 b 367 0 -17 554 -78 0 b 272 731 776 0 919 786 z "},"6":{"ha":683,"x_min":0,"x_max":0,"o":"m 363 690 b 239 653 297 690 260 674 b 406 939 256 803 311 939 b 514 738 507 939 514 738 b 408 1047 692 738 647 1047 b 322 0 -17 1047 -106 0 b 363 690 689 0 788 690 z m 374 250 b 235 539 283 250 239 388 b 286 543 253 542 271 543 b 374 250 506 543 460 250 z "},"7":{"ha":733,"x_min":0,"x_max":0,"o":"m 632 1028 b 504 964 590 1028 547 1004 b 201 1028 374 979 325 1028 b 146 786 -22 1028 19 786 b 426 871 146 850 221 876 b 221 171 307 696 213 407 b 357 -7 226 25 296 -7 b 454 15 408 -7 454 15 b 546 865 365 394 476 714 b 632 1028 697 863 739 1028 z "},"8":{"ha":658,"x_min":0,"x_max":0,"o":"m 438 644 b 519 856 471 672 519 733 b 353 1050 519 986 438 1050 b 175 843 265 1050 175 981 b 239 676 175 774 203 722 b 43 342 157 631 43 532 b 324 -3 43 107 182 -3 b 617 336 468 -3 617 114 b 438 644 617 474 525 564 z m 414 872 b 347 729 414 788 367 743 b 279 868 308 772 279 817 b 349 947 279 921 314 947 b 414 872 382 947 414 924 z m 222 385 b 319 592 222 490 279 557 b 439 388 382 532 439 474 b 333 250 439 294 386 250 b 222 385 278 250 222 297 z "},"9":{"ha":675,"x_min":0,"x_max":0,"o":"m 353 1050 b 264 464 -39 1050 -46 464 b 426 490 342 464 392 475 b 236 250 389 360 321 250 b 146 310 158 250 146 310 b 233 3 -35 310 35 3 b 353 1050 668 3 807 1050 z m 340 944 b 449 592 449 944 476 767 b 340 944 151 571 197 944 z "},"\u0000":{"ha":0,"x_min":0,"x_max":0,"o":""},"\r":{"ha":347,"x_min":0,"x_max":0,"o":""}," ":{"ha":361,"x_min":0,"x_max":0,"o":""},"w":{"ha":771,"x_min":0,"x_max":0,"o":"m 819 404 l 771 404 b 708 272 771 381 749 308 b 615 765 749 493 700 765 b 558 326 526 765 515 496 b 503 250 547 282 529 250 b 451 425 468 250 451 279 b 451 700 451 543 451 700 b 364 725 451 717 407 725 b 279 700 321 725 279 717 l 279 383 b 224 250 275 315 257 250 b 172 425 189 250 172 279 b 172 700 172 543 172 700 b 85 725 172 717 128 725 b 0 700 42 725 0 717 b 0 413 0 700 0 519 b 189 0 -1 206 21 0 b 322 100 254 0 296 40 b 490 0 351 39 403 0 b 689 194 590 0 654 83 b 819 404 799 213 819 372 z "},"q":{"ha":638,"x_min":0,"x_max":0,"o":"m 535 110 b 688 404 682 214 688 404 l 638 404 b 535 233 638 404 629 294 b 535 700 535 465 535 700 b 447 725 535 717 490 725 b 363 700 404 725 363 717 b 363 674 363 700 363 690 b 232 735 336 707 294 735 b 190 0 -65 735 -82 0 b 363 160 275 0 329 69 b 363 -81 363 46 363 -49 b 492 -347 363 -208 354 -347 b 550 -310 546 -347 565 -310 b 535 -211 535 -310 535 -254 b 535 110 535 -203 535 -61 z m 238 250 b 246 551 169 250 176 551 b 238 250 310 551 311 250 z "},"v":{"ha":492,"x_min":0,"x_max":0,"o":"m 542 404 l 492 404 b 429 272 492 381 471 308 b 336 765 469 493 421 765 b 279 326 249 765 236 496 b 224 250 268 282 251 250 b 172 425 189 250 172 279 b 172 700 172 543 172 700 b 85 725 172 717 128 725 b 0 700 42 725 0 717 b 0 413 0 700 0 519 b 211 0 0 206 13 0 b 411 194 313 0 376 83 b 542 404 519 213 542 372 z "},"z":{"ha":510,"x_min":0,"x_max":0,"o":"m 560 404 l 510 404 b 350 222 510 404 500 222 b 424 590 250 222 424 478 b 296 697 424 671 383 707 b 193 692 257 693 224 692 b 72 704 139 692 100 697 b -8 818 61 771 38 818 b 7 574 -101 818 -96 622 b 14 569 10 572 11 571 b -19 324 10 481 0 376 l 22 286 b 75 553 44 328 68 442 b 171 544 106 547 139 544 b 271 554 207 544 242 547 b 35 129 219 418 35 233 b 229 0 35 56 121 0 b 560 404 596 0 560 404 z "},"j":{"ha":276,"x_min":0,"x_max":0,"o":"m 86 783 b 161 886 128 783 161 829 b 86 989 161 943 128 989 b 13 886 46 989 13 943 b 86 783 13 829 46 783 z m 325 404 l 276 404 b 174 169 261 304 222 229 b 174 700 174 374 174 672 b 86 725 174 717 129 725 b 0 700 43 725 0 717 b 0 29 0 668 0 232 b -344 -311 -167 -72 -344 -131 b -150 -517 -344 -429 -279 -517 b 174 57 146 -517 172 -131 b 325 404 258 143 325 254 z m -147 -254 b -172 -231 -168 -254 -172 -242 b -7 -85 -172 -189 -99 -146 b -147 -254 -31 -208 -104 -254 z "},"x":{"ha":444,"x_min":0,"x_max":0,"o":"m 494 404 l 444 404 b 369 250 444 404 422 250 b 282 335 350 250 318 285 b 410 629 346 444 410 558 b 344 708 410 664 397 708 b 292 678 300 708 292 678 b 310 629 292 678 310 664 b 211 443 310 599 265 528 b 74 688 157 531 104 629 b -7 789 64 747 39 789 b 10 496 -96 789 -79 633 b -19 324 4 428 -6 363 l 24 286 b 53 376 33 306 43 338 b 100 261 67 339 83 300 b 14 38 51 176 14 94 b 99 -53 14 -15 43 -53 b 193 15 179 -53 193 15 b 161 69 193 15 161 38 b 172 121 161 83 165 101 b 319 0 217 50 267 0 b 494 404 496 0 494 404 z "},"t":{"ha":276,"x_min":0,"x_max":0,"o":"m 308 985 b 174 960 261 985 217 974 b 174 1047 174 1008 174 1040 b 86 1072 174 1064 129 1072 b 0 1047 43 1072 0 1064 b 0 903 0 1039 0 982 b -87 892 -28 896 -57 892 b -193 971 -176 892 -193 971 b -110 781 -319 971 -321 781 b 0 789 -68 781 -32 785 b 0 301 0 597 0 360 b 135 0 0 203 0 0 b 325 404 332 0 325 404 l 276 404 b 201 250 276 404 254 250 b 174 326 174 250 174 300 b 174 825 174 367 174 628 b 257 832 200 829 226 832 b 390 765 378 832 390 765 b 308 985 465 765 514 985 z "},"s":{"ha":556,"x_min":0,"x_max":0,"o":"m 606 404 l 556 404 b 492 265 556 404 550 326 b 493 293 493 274 493 283 b 379 606 493 407 417 515 b 411 689 393 624 411 653 b 331 764 411 739 371 764 b 244 683 288 764 244 738 b 274 586 244 649 258 618 b 190 525 243 561 214 540 b 143 533 178 531 163 533 b 246 0 -87 533 -74 0 b 415 86 311 0 371 33 b 606 404 599 182 606 404 z m 333 399 b 254 250 333 318 300 250 b 247 417 185 250 161 417 b 235 483 247 417 251 451 b 300 535 254 499 278 515 b 333 399 318 496 333 453 z "},"r":{"ha":440,"x_min":0,"x_max":0,"o":"m 490 404 l 440 404 b 367 250 440 404 418 250 b 338 326 338 250 338 300 b 338 646 338 390 338 614 b 242 715 338 700 328 715 b 71 715 186 715 121 715 b -7 818 60 776 36 818 b 15 569 -103 818 -94 613 b -19 324 10 481 0 376 l 24 286 b 76 563 46 329 71 447 b 165 514 135 561 165 551 b 165 301 165 440 165 354 b 300 0 165 203 165 0 b 490 404 497 0 490 404 z "},"i":{"ha":275,"x_min":0,"x_max":0,"o":"m 86 783 b 161 886 128 783 161 829 b 86 989 161 943 128 989 b 13 886 46 989 13 943 b 86 783 13 829 46 783 z m 325 404 l 275 404 b 201 250 275 404 254 250 b 172 326 172 250 172 300 b 172 700 172 390 172 667 b 85 725 172 717 128 725 b 0 700 42 725 0 717 b 0 301 0 671 0 400 b 135 0 0 203 0 0 b 325 404 332 0 325 404 z "},"k":{"ha":551,"x_min":0,"x_max":0,"o":"m 551 404 b 378 211 551 404 529 211 b 197 397 297 211 231 325 b 275 551 214 482 240 551 b 263 411 324 551 306 411 b 325 365 263 411 268 365 b 317 735 488 365 542 735 b 172 626 251 735 204 692 b 172 1047 172 842 172 1047 b 85 1072 172 1064 128 1072 b 0 1047 42 1072 0 1064 b 0 268 0 1047 0 363 b 128 0 0 139 -8 0 b 188 38 183 0 203 38 b 172 118 174 38 172 79 l 172 201 b 172 210 172 204 172 207 b 344 0 204 103 258 0 b 601 404 575 0 601 404 z "},"y":{"ha":556,"x_min":0,"x_max":0,"o":"m 604 404 l 556 404 b 453 161 539 300 501 222 b 453 700 453 365 453 672 b 365 725 453 717 408 725 b 279 700 322 725 279 717 b 279 383 279 682 279 540 b 224 250 276 314 258 250 b 174 425 189 250 174 279 b 174 700 174 543 174 700 b 86 725 174 717 129 725 b 0 700 43 725 0 717 b 0 413 0 700 0 519 b 176 0 0 206 22 0 b 279 56 224 0 257 21 b 279 19 279 43 279 31 b -65 -311 113 -81 -65 -131 b 129 -517 -65 -429 0 -517 b 453 49 421 -517 450 -143 b 604 404 538 133 604 246 z m 132 -254 b 107 -231 111 -254 107 -242 b 271 -92 107 -189 181 -149 b 132 -254 246 -210 175 -254 z "},"g":{"ha":638,"x_min":0,"x_max":0,"o":"m 688 404 l 638 404 b 535 169 622 304 585 229 b 535 700 535 374 535 672 b 447 725 535 717 490 725 b 363 700 404 725 363 717 b 363 674 363 696 363 688 b 232 735 336 707 294 735 b 189 0 -65 735 -83 0 b 363 160 274 0 328 69 b 363 29 363 111 363 65 b 17 -311 196 -72 17 -131 b 211 -517 17 -429 82 -517 b 535 57 508 -517 533 -131 b 688 404 619 143 688 254 z m 238 250 b 246 551 169 250 176 551 b 238 250 310 551 311 250 z m 215 -254 b 189 -231 194 -254 189 -242 b 354 -85 189 -189 264 -146 b 215 -254 331 -208 258 -254 z "},"f":{"ha":483,"x_min":0,"x_max":0,"o":"m 533 404 l 483 404 b 339 163 483 404 457 235 b 217 221 307 199 267 221 b 140 201 185 221 160 214 b 253 553 140 250 146 553 b 271 449 283 553 299 494 b 318 426 271 449 278 426 b 253 735 476 426 451 735 b -24 139 97 735 -15 572 b 228 -515 -33 -328 54 -515 b 394 67 417 -515 476 -150 b 533 404 526 181 533 404 z m 222 -253 b 150 33 181 -253 160 -76 b 261 1 176 15 213 3 b 222 -253 272 -82 275 -253 z "},"e":{"ha":515,"x_min":0,"x_max":0,"o":"m 515 404 b 324 211 515 404 496 211 b 222 261 276 211 243 231 b 268 250 235 254 250 250 b 258 735 488 250 540 735 b 240 0 -69 735 -106 0 b 565 404 553 0 565 404 z m 260 551 b 260 371 314 551 315 371 b 260 551 201 371 201 551 z "},"o":{"ha":517,"x_min":0,"x_max":0,"o":"m 565 404 l 517 404 b 451 264 517 404 510 325 b 239 735 485 475 413 735 b 232 0 -81 735 -82 0 b 389 93 300 0 353 36 b 565 404 560 193 565 404 z m 243 551 b 235 250 308 551 310 250 b 243 551 167 250 174 551 z "},"p":{"ha":600,"x_min":0,"x_max":0,"o":"m 650 404 l 600 404 b 529 258 600 404 594 321 b 350 735 572 469 514 735 b 172 608 261 735 206 681 b 172 700 172 665 172 700 b 85 725 172 717 128 725 b 0 700 42 725 0 717 b 0 -81 0 700 0 15 b 129 -347 0 -208 -8 -347 b 189 -310 183 -347 204 -310 b 172 -211 172 -310 172 -254 b 172 94 172 -204 172 -69 b 308 0 199 44 242 0 b 460 85 371 0 421 33 b 650 404 643 181 650 404 z m 303 551 b 294 250 371 551 364 250 b 303 551 231 250 228 551 z "},"b":{"ha":600,"x_min":0,"x_max":0,"o":"m 650 404 l 600 404 b 529 258 600 404 594 321 b 350 735 572 469 514 735 b 172 608 261 735 206 681 b 172 1047 172 831 172 1047 b 85 1072 172 1064 128 1072 b 0 1047 42 1072 0 1064 b 0 268 0 1047 0 363 b 129 0 0 139 -8 0 b 189 38 183 0 204 38 b 174 94 176 38 174 64 b 308 0 200 44 242 0 b 460 85 371 0 421 33 b 650 404 643 181 650 404 z m 303 551 b 294 250 371 551 364 250 b 303 551 231 250 228 551 z "},"m":{"ha":828,"x_min":0,"x_max":0,"o":"m 878 404 l 828 404 b 754 250 828 404 807 250 b 725 326 725 250 725 300 b 725 511 725 390 725 479 b 594 735 725 675 703 735 b 444 615 524 735 476 686 b 318 735 432 701 399 735 b 172 626 251 735 206 692 b 172 700 172 671 172 700 b 85 725 172 717 128 725 b 0 700 42 725 0 717 b 0 268 0 700 0 363 b 129 0 0 139 -8 0 b 189 38 183 0 204 38 b 172 118 174 38 172 79 l 172 188 b 253 551 179 319 217 551 b 276 468 272 551 276 529 b 276 268 276 468 276 268 b 406 0 276 139 268 0 b 465 38 460 0 481 38 b 449 136 449 38 449 93 l 449 188 b 529 551 456 319 493 551 b 553 468 549 551 553 529 b 553 301 553 468 553 368 b 688 0 553 203 553 0 b 878 404 885 0 878 404 z "},"n":{"ha":551,"x_min":0,"x_max":0,"o":"m 601 404 l 551 404 b 476 250 551 404 529 250 b 449 326 449 250 449 300 b 449 511 449 390 449 479 b 317 735 449 675 425 735 b 172 626 251 735 204 692 b 172 700 172 671 172 700 b 85 725 172 717 128 725 b 0 700 42 725 0 717 b 0 268 0 700 0 363 b 128 0 0 139 -8 0 b 188 38 183 0 203 38 b 172 118 174 38 172 79 l 172 188 b 251 551 179 319 215 551 b 276 468 271 551 276 529 b 276 301 276 468 276 368 b 410 0 276 203 276 0 b 601 404 607 0 601 404 z "},"h":{"ha":551,"x_min":0,"x_max":0,"o":"m 601 404 l 551 404 b 476 250 551 404 529 250 b 449 326 449 250 449 300 b 449 511 449 390 449 479 b 317 735 449 675 425 735 b 172 626 251 735 204 692 b 172 1047 172 842 172 1047 b 85 1072 172 1064 128 1072 b 0 1047 42 1072 0 1064 b 0 268 0 1047 0 363 b 128 0 0 139 -8 0 b 188 38 183 0 203 38 b 172 118 174 38 172 79 l 172 188 b 251 551 179 319 215 551 b 276 468 271 551 276 529 b 276 301 276 468 276 368 b 410 0 276 203 276 0 b 601 404 607 0 601 404 z "},"u":{"ha":553,"x_min":0,"x_max":0,"o":"m 603 404 l 553 404 b 479 250 553 404 531 250 b 450 326 450 250 450 300 b 450 700 450 390 450 667 b 363 725 450 717 406 725 b 278 700 319 725 278 717 b 278 358 278 675 278 479 b 224 250 272 300 254 250 b 172 425 189 250 172 279 b 172 700 172 543 172 700 b 85 725 172 717 128 725 b 0 700 42 725 0 717 b 0 413 0 700 0 519 b 176 0 0 206 22 0 b 300 96 239 0 276 39 b 413 0 318 42 351 0 b 603 404 610 0 603 404 z "},"l":{"ha":275,"x_min":0,"x_max":0,"o":"m 172 1047 b 85 1072 172 1064 128 1072 b 0 1047 42 1072 0 1064 b 0 301 0 1018 0 400 b 135 0 0 203 0 0 b 325 404 332 0 325 404 l 275 404 b 201 250 275 404 254 250 b 172 326 172 250 172 300 b 172 1047 172 390 172 1015 z "},"d":{"ha":638,"x_min":0,"x_max":0,"o":"m 688 404 l 638 404 b 564 250 638 404 615 250 b 535 326 535 250 535 300 b 535 1047 535 390 535 1015 b 447 1072 535 1064 490 1072 b 363 1047 404 1072 363 1064 b 363 674 363 1032 363 853 b 232 735 336 707 294 735 b 189 0 -65 735 -83 0 b 368 175 279 0 335 76 b 497 0 378 88 408 0 b 688 404 693 0 688 404 z m 238 250 b 246 551 169 250 176 551 b 238 250 310 551 311 250 z "},"a":{"ha":638,"x_min":0,"x_max":0,"o":"m 688 404 l 638 404 b 564 250 638 404 615 250 b 535 326 535 250 535 300 b 535 700 535 390 535 667 b 447 725 535 717 490 725 b 363 700 404 725 363 717 b 363 674 363 696 363 686 b 232 735 336 707 294 735 b 189 0 -65 735 -83 0 b 368 175 279 0 335 76 b 497 0 378 88 408 0 b 688 404 693 0 688 404 z m 238 250 b 246 551 169 250 176 551 b 238 250 310 551 311 250 z "},"c":{"ha":503,"x_min":0,"x_max":0,"o":"m 503 404 b 311 211 503 404 483 211 b 269 553 118 211 186 553 b 288 449 300 553 315 494 b 335 426 288 449 294 426 b 269 735 493 426 468 735 b 228 1 -60 735 -118 1 b 553 404 540 1 553 404 z "},"Z":{"ha":864,"x_min":0,"x_max":0,"o":"m 735 294 b 590 217 735 294 696 217 b 396 242 557 217 478 229 b 538 497 447 319 494 408 b 646 497 594 497 640 497 b 646 607 664 497 668 607 b 589 607 642 607 619 607 b 715 915 646 733 690 847 b 754 1093 851 943 863 1093 b 625 1011 692 1093 649 1047 b 313 1093 508 1036 443 1093 b 175 604 -72 1093 -61 604 b 342 765 335 604 342 765 b 357 982 183 765 211 982 b 588 918 438 982 493 936 b 432 607 540 817 486 710 b 315 607 372 607 321 607 b 315 497 297 607 293 497 b 374 497 319 497 342 497 b 246 263 325 407 281 325 b 189 268 222 265 201 268 b 113 0 -37 268 -62 0 b 303 117 175 0 239 46 b 636 -12 414 72 503 -12 b 735 294 849 -12 865 294 z "},"D":{"ha":969,"x_min":0,"x_max":0,"o":"m 654 1085 b 713 1094 672 1090 692 1094 b 850 1017 806 1094 850 1017 b 704 1244 943 1017 957 1244 b 464 1125 611 1244 528 1210 b 129 599 -85 1125 -78 599 b 286 771 290 599 286 771 b 404 1014 158 771 200 983 b 338 565 363 908 338 763 b 267 363 338 483 342 363 b 204 431 228 363 204 431 b 247 0 18 431 -7 0 b 426 104 324 0 383 38 b 583 0 450 50 496 0 b 654 1085 936 0 1074 883 z m 546 250 b 489 268 519 250 501 257 b 507 461 501 325 507 390 b 564 992 507 713 517 890 b 546 250 808 857 753 250 z "},"X":{"ha":892,"x_min":0,"x_max":0,"o":"m 942 404 l 892 404 b 818 251 892 404 869 251 b 621 726 717 251 688 499 b 774 921 663 839 710 921 b 810 897 801 921 810 897 b 765 1058 876 897 888 1058 b 567 876 686 1058 624 981 b 307 1094 511 1000 433 1094 b 151 606 -60 1094 -81 606 b 294 767 301 606 294 767 b 311 983 189 767 190 983 b 460 656 383 983 422 836 b 219 363 389 501 317 363 b 157 431 181 363 157 431 b 200 0 -31 431 -54 0 b 514 401 356 0 443 192 b 751 1 563 189 626 1 b 942 404 949 1 942 404 z "},"W":{"ha":1450,"x_min":0,"x_max":0,"o":"m 1181 1211 b 1026 1085 1042 1211 1026 1085 b 968 250 1333 1085 1107 250 b 961 839 924 250 1006 503 b 875 867 958 857 917 867 b 789 839 832 867 790 857 b 614 250 775 551 668 250 b 322 1099 539 250 846 1099 b 150 610 -68 1099 -82 610 b 293 772 300 610 293 772 b 331 989 188 772 183 989 b 556 0 574 989 264 0 b 796 218 651 0 732 89 b 928 0 806 92 839 0 b 1181 1211 1282 0 1632 1211 z "},"Y":{"ha":975,"x_min":0,"x_max":0,"o":"m 918 1047 b 831 1072 918 1064 874 1072 b 746 1047 788 1072 746 1064 b 746 1035 746 1047 746 1043 b 532 563 726 878 642 563 b 536 1026 458 563 497 914 b 569 1142 651 1051 661 1142 b 450 1094 513 1142 474 1119 b 132 599 -83 1085 -74 599 b 288 772 293 599 288 772 b 404 1014 160 772 201 982 b 501 369 279 760 285 369 b 746 581 621 369 697 464 b 746 393 746 476 746 394 b 647 206 746 311 724 206 b 582 304 581 206 582 304 b 589 -172 304 304 292 -172 b 919 289 793 -172 919 15 b 918 1047 919 331 918 1047 z "},"T":{"ha":568,"x_min":0,"x_max":0,"o":"m 892 1256 b 436 1138 892 1256 833 1138 b 131 599 -112 1138 -78 599 b 288 771 292 599 288 771 b 404 1014 158 771 200 983 b 339 565 363 908 339 763 b 268 363 339 483 342 363 b 206 431 229 363 206 431 b 249 0 18 431 -6 0 b 508 461 417 0 508 188 b 531 1017 508 725 481 917 b 769 996 636 1011 674 996 b 892 1256 1029 996 1000 1256 z "},"U":{"ha":964,"x_min":0,"x_max":0,"o":"m 1013 404 l 964 404 b 889 250 964 404 942 250 b 861 326 861 250 861 300 b 861 1047 861 390 861 1015 b 774 1072 861 1064 817 1072 b 688 1047 731 1072 688 1064 b 688 824 688 1036 688 942 b 539 250 672 671 622 250 b 536 1025 465 250 488 928 b 569 1142 651 1050 661 1142 b 450 1093 513 1142 475 1119 b 132 599 -83 1083 -74 599 b 289 771 293 599 289 771 b 404 1014 160 771 201 982 b 463 0 278 747 224 0 b 689 263 571 0 642 118 b 822 0 690 157 704 0 b 1013 404 1019 0 1013 404 z "},"Q":{"ha":814,"x_min":0,"x_max":0,"o":"m 789 -31 b 718 -71 789 -31 782 -71 b 472 32 619 -71 544 -19 b 399 1125 882 267 853 1125 b 233 206 -115 1125 -90 206 b 444 457 432 206 444 457 b 407 1011 158 457 201 1011 b 350 110 590 1011 646 275 b 238 139 315 128 278 139 b 244 -26 71 139 63 -26 b 332 -19 275 -26 304 -24 b 669 -293 414 -129 507 -293 b 789 -31 892 -293 911 -31 z "},"S":{"ha":743,"x_min":0,"x_max":0,"o":"m 343 814 b 467 668 343 814 340 668 b 419 1125 726 668 763 1125 b 93 839 211 1125 93 1003 b 483 328 93 469 483 457 b 360 251 483 288 422 251 b 231 468 283 251 206 304 b 171 501 231 468 224 501 b 325 0 -64 501 -92 0 b 694 326 599 0 694 211 b 276 843 694 551 276 563 b 411 1011 276 956 342 1011 b 343 814 535 1011 463 814 z "},"O":{"ha":769,"x_min":0,"x_max":0,"o":"m 363 1125 b 67 532 46 1125 -92 739 b 307 0 -7 293 49 0 b 363 1125 868 0 825 1125 z m 336 250 b 249 417 264 250 240 326 b 365 404 283 408 322 404 b 365 515 399 404 396 515 b 276 533 331 515 301 522 b 469 721 313 633 383 721 b 376 833 469 721 486 833 b 168 725 294 833 224 792 b 358 1011 164 861 243 1011 b 336 250 565 1011 611 250 z "},"V":{"ha":1072,"x_min":0,"x_max":0,"o":"m 808 1211 b 654 1085 669 1211 654 1085 b 597 250 961 1085 729 250 b 322 1099 517 250 844 1099 b 149 610 -68 1099 -83 610 b 293 772 299 610 293 772 b 331 989 188 772 183 989 b 556 0 572 989 263 0 b 808 1211 910 0 1260 1211 z "},"M":{"ha":1172,"x_min":0,"x_max":0,"o":"m 1221 404 l 1172 404 b 1097 250 1172 404 1150 250 b 1069 326 1069 250 1069 300 b 1069 631 1069 390 1069 597 b 914 1047 1069 761 1069 1047 b 738 831 819 1047 767 943 b 642 1008 731 926 706 1008 b 501 879 578 1008 532 953 b 533 1025 504 940 513 989 b 567 1142 650 1050 660 1142 b 449 1093 510 1142 472 1119 b 129 599 -85 1083 -76 599 b 286 771 290 599 286 771 b 404 1014 158 771 200 983 b 338 565 361 908 338 763 b 267 363 338 483 342 363 b 204 431 228 363 204 431 b 247 0 17 431 -7 0 b 506 394 403 0 492 157 b 589 833 506 394 553 833 b 607 275 619 833 607 275 b 694 250 607 258 651 250 b 779 275 738 250 779 258 b 861 844 779 275 804 844 b 896 631 901 844 896 718 b 896 301 896 601 896 400 b 1031 0 896 203 896 0 b 1221 404 1228 0 1221 404 z "},"N":{"ha":947,"x_min":0,"x_max":0,"o":"m 996 404 l 947 404 b 872 250 947 404 925 250 b 844 326 844 250 844 300 b 844 675 844 390 844 546 b 711 1060 844 804 861 1060 b 500 826 619 1060 550 950 b 535 1025 501 913 508 979 b 568 1142 651 1050 660 1142 b 449 1093 511 1142 474 1119 b 131 599 -85 1083 -75 599 b 288 771 292 599 288 771 b 404 1014 158 771 200 983 b 339 565 363 908 339 763 b 268 363 339 483 342 363 b 206 431 229 363 206 431 b 249 0 18 431 -7 0 b 508 461 417 0 508 188 b 639 843 528 665 600 843 b 671 301 693 843 671 400 b 806 0 671 203 671 0 b 996 404 1003 0 996 404 z "},"R":{"ha":906,"x_min":0,"x_max":0,"o":"m 956 404 l 906 404 b 810 250 906 404 888 250 b 621 483 735 250 713 403 b 664 1086 910 593 932 965 b 715 1094 679 1092 696 1094 b 817 1017 796 1094 817 1017 b 707 1244 910 1017 942 1244 b 467 1125 614 1244 531 1210 b 132 599 -83 1125 -76 599 b 289 771 293 599 289 771 b 406 1014 160 771 201 983 b 340 565 364 908 340 763 b 269 363 340 483 343 363 b 207 431 231 363 207 431 b 250 0 19 431 -6 0 b 508 419 410 0 500 168 b 758 0 588 349 593 11 b 765 0 760 0 763 0 b 956 404 963 0 956 404 z m 514 532 b 510 532 513 532 511 532 b 565 992 511 746 524 899 b 514 532 726 899 715 593 z "},"G":{"ha":735,"x_min":0,"x_max":0,"o":"m 638 713 b 546 561 572 713 551 638 b 343 469 507 515 442 469 b 422 1011 117 469 233 1011 b 357 797 511 1011 475 797 b 464 654 357 797 346 654 b 421 1125 661 654 721 1125 b 293 276 -11 1125 -151 276 b 540 379 408 276 486 321 b 293 154 528 276 479 154 b 64 250 142 154 64 250 b 289 -97 -43 250 -40 -97 b 664 510 642 -97 671 303 b 638 713 710 614 704 713 z "},"L":{"ha":913,"x_min":0,"x_max":0,"o":"m 749 285 b 654 250 688 285 654 250 b 582 157 676 207 639 157 b 460 193 542 157 503 174 b 481 442 469 246 478 325 b 514 1125 826 553 739 1125 b 310 561 321 1125 310 781 b 293 914 169 624 244 860 b 189 965 293 914 271 965 b 310 425 -75 965 -85 460 b 301 246 310 357 308 297 b 243 250 283 249 264 250 b 222 0 1 250 -4 0 b 406 82 311 0 371 44 b 686 0 519 56 572 0 b 749 285 914 0 914 285 z m 528 1011 b 481 571 588 1011 640 665 b 528 1011 482 971 503 1011 z "},"K":{"ha":865,"x_min":0,"x_max":0,"o":"m 903 1047 b 506 622 719 1047 606 728 b 535 1025 499 811 490 949 b 568 1142 650 1050 660 1142 b 449 1093 511 1142 474 1119 b 131 599 -85 1083 -75 599 b 288 771 292 599 288 771 b 404 1014 158 771 200 983 b 339 565 363 908 339 763 b 268 363 339 483 342 363 b 206 431 229 363 206 431 b 249 0 18 431 -7 0 b 506 388 401 0 490 154 b 717 0 554 254 583 8 b 724 0 719 0 721 0 b 914 404 921 0 914 404 l 865 404 b 768 250 865 404 847 250 b 569 526 690 250 669 438 b 886 864 693 635 763 864 b 931 839 928 864 931 839 b 903 1047 1021 839 1064 1047 z "},"I":{"ha":561,"x_min":0,"x_max":0,"o":"m 568 1142 b 449 1093 511 1142 474 1119 b 131 599 -83 1083 -75 599 b 288 771 292 599 288 771 b 404 1014 160 771 200 983 b 339 565 363 908 339 763 b 268 363 339 483 342 363 b 206 431 229 363 206 431 b 249 0 18 431 -6 0 b 508 461 417 0 508 188 b 535 1025 508 733 479 928 b 568 1142 651 1050 660 1142 z "},"H":{"ha":936,"x_min":0,"x_max":0,"o":"m 985 404 l 936 404 b 861 250 936 404 914 250 b 833 326 833 250 833 300 b 833 1047 833 390 833 1015 b 746 1072 833 1064 789 1072 b 661 1047 703 1072 661 1064 b 661 571 661 1029 661 779 l 506 571 b 535 1025 501 786 486 942 b 568 1142 650 1050 660 1142 b 449 1093 510 1142 472 1119 b 129 599 -85 1083 -76 599 b 286 771 290 599 286 771 b 404 1014 158 771 200 983 b 338 565 363 908 338 763 b 268 363 338 483 342 363 b 204 431 229 363 204 431 b 249 0 18 431 -7 0 b 507 460 417 0 507 186 l 661 460 b 661 301 661 386 661 326 b 794 0 661 203 661 0 b 985 404 992 0 985 404 z "},"J":{"ha":600,"x_min":0,"x_max":0,"o":"m 607 1142 b 488 1093 550 1142 511 1119 b 203 674 -19 1085 -1 674 b 329 846 364 674 375 846 b 288 826 329 846 310 826 b 443 1014 222 826 269 986 b 376 565 401 908 376 763 b 279 378 376 483 346 378 b 213 476 213 378 213 476 b 221 0 -65 476 -78 0 b 547 461 425 0 547 188 b 574 1025 547 733 517 928 b 607 1142 689 1050 699 1142 z "},"E":{"ha":711,"x_min":0,"x_max":0,"o":"m 711 404 b 447 250 711 404 690 250 b 221 550 243 250 183 442 b 331 525 253 535 289 525 b 344 675 463 525 474 675 b 256 665 313 675 283 672 b 414 1011 213 765 271 1011 b 356 851 546 1011 492 851 b 468 700 356 851 338 700 b 411 1125 671 700 753 1125 b 139 614 57 1125 -1 781 b 375 0 -96 447 -43 0 b 761 404 744 0 761 404 z "},"C":{"ha":667,"x_min":0,"x_max":0,"o":"m 294 817 b 401 672 294 817 283 672 b 425 1125 599 672 725 1125 b 360 0 -65 1125 -185 0 b 717 404 693 0 717 404 l 667 404 b 410 250 667 404 647 250 b 433 1011 67 250 188 1011 b 294 817 511 1011 413 817 z "},"P":{"ha":904,"x_min":0,"x_max":0,"o":"m 706 1244 b 465 1125 613 1244 529 1210 b 131 599 -83 1125 -76 599 b 288 771 292 599 288 771 b 406 1014 160 771 201 983 b 339 565 364 908 339 763 b 268 363 339 483 343 363 b 206 431 229 363 206 431 b 249 0 18 431 -6 0 b 508 418 408 0 499 168 b 660 1086 901 468 963 944 b 714 1094 676 1092 694 1094 b 851 1017 807 1094 851 1017 b 706 1244 944 1017 958 1244 z m 508 531 b 564 992 511 744 522 899 b 508 531 726 897 714 589 z "},"A":{"ha":903,"x_min":0,"x_max":0,"o":"m 953 404 l 903 404 b 829 250 903 404 881 250 b 797 328 803 250 799 301 b 757 1040 793 378 761 972 b 619 1135 754 1097 689 1135 b 544 1119 594 1135 568 1129 b 467 1125 519 1124 494 1125 b 132 599 -82 1125 -75 599 b 289 771 293 599 289 771 b 463 1044 143 771 226 1033 b 451 1018 458 1036 456 1028 b 221 363 383 801 347 363 b 157 431 181 363 157 431 b 183 0 -26 431 -60 0 b 500 478 388 0 460 213 l 622 478 b 628 301 625 393 626 325 b 763 0 629 203 628 0 b 953 404 958 0 953 404 z m 517 589 b 564 978 532 717 544 851 b 590 1004 567 996 579 1004 b 611 974 601 1004 613 994 b 619 589 611 961 615 767 z "},"B":{"ha":938,"x_min":0,"x_max":0,"o":"m 686 575 b 661 1086 907 706 886 983 b 714 1094 678 1092 694 1094 b 851 1017 807 1094 851 1017 b 706 1244 944 1017 958 1244 b 465 1125 613 1244 529 1210 b 131 599 -83 1125 -76 599 b 288 771 292 599 288 771 b 406 1014 160 771 201 983 b 339 565 364 908 339 763 b 268 363 339 483 343 363 b 206 431 229 363 206 431 b 250 0 19 431 -6 0 b 432 111 328 0 389 40 b 613 0 460 56 511 0 b 686 575 943 0 989 506 z m 510 600 b 565 993 514 781 528 911 b 510 600 701 917 660 686 z m 547 250 b 490 268 521 250 503 257 b 508 497 507 343 508 421 b 572 519 528 510 550 519 b 547 250 713 519 694 250 z "},"F":{"ha":742,"x_min":0,"x_max":0,"o":"m 646 742 b 504 667 646 742 588 701 b 536 1025 499 832 494 954 b 569 1142 651 1050 661 1142 b 450 1093 511 1142 474 1119 b 131 599 -83 1083 -75 599 b 288 771 292 599 288 771 b 406 1014 160 771 201 983 b 340 618 367 918 344 789 b 275 614 318 615 297 614 b 339 503 275 614 251 514 b 268 363 336 433 325 363 b 206 431 229 363 206 431 b 249 0 19 431 -6 0 b 508 461 418 0 508 188 b 508 544 508 489 508 518 b 568 593 547 568 568 593 b 624 388 538 526 521 388 b 710 435 697 388 710 435 b 646 742 633 513 646 742 z "},"ß":{"ha":772,"x_min":0,"x_max":0,"o":"m 508 572 b 613 772 508 638 613 657 b 371 1033 613 889 557 1033 b 111 713 188 1033 113 886 l 111 25 b 199 0 111 8 156 0 b 283 25 242 0 283 8 l 283 713 b 396 944 283 835 310 944 b 476 822 454 944 476 883 b 407 568 476 735 407 653 b 504 275 407 483 504 401 b 410 99 504 161 440 99 b 410 31 382 61 410 31 b 697 265 646 31 697 153 b 508 572 697 465 508 508 z "},"@":{"ha":1269,"x_min":0,"x_max":0,"o":"m 690 1047 b 700 -58 -87 1047 -129 -58 b 704 57 746 -58 746 57 b 685 939 47 57 117 939 b 993 436 1151 939 1110 436 b 951 489 963 436 951 453 b 951 778 951 535 951 778 b 856 792 951 778 915 792 b 764 781 829 792 799 789 b 617 869 740 824 696 869 b 574 135 318 869 301 135 b 760 336 671 135 728 225 b 921 213 774 279 814 213 b 690 1047 1299 213 1372 1047 z m 621 385 b 629 686 553 385 560 686 b 621 385 693 686 696 385 z "},"®":{"ha":1192,"x_min":0,"x_max":0,"o":"m 607 1043 b 83 519 318 1043 83 808 b 607 -3 83 232 318 -3 b 1131 519 896 -3 1131 232 b 607 1043 1131 808 896 1043 z m 607 132 b 219 519 393 132 219 307 b 607 907 219 733 393 907 b 736 885 653 907 696 900 b 728 886 733 886 731 886 b 600 822 679 886 635 867 b 422 543 308 822 313 543 b 506 635 508 543 506 635 b 568 764 438 635 460 746 b 533 525 546 707 533 629 b 496 417 533 482 535 417 b 463 453 475 417 463 453 b 486 225 363 453 350 225 b 624 447 571 225 618 314 b 756 225 665 410 668 231 b 760 225 757 225 758 225 b 860 439 864 225 860 439 l 835 439 b 783 357 835 439 825 357 b 682 482 743 357 731 439 b 706 801 836 540 847 738 b 732 806 714 804 722 806 b 786 765 776 806 786 765 b 815 847 818 765 836 811 b 994 519 922 778 994 657 b 607 132 994 307 821 132 z m 626 507 b 624 507 625 507 625 507 b 653 751 625 621 631 703 b 626 507 739 701 732 540 z "},"©":{"ha":1192,"x_min":0,"x_max":0,"o":"m 607 1043 b 83 519 318 1043 83 808 b 607 -3 83 232 318 -3 b 1131 519 896 -3 1131 232 b 607 1043 1131 808 896 1043 z m 607 132 b 219 519 393 132 219 307 b 607 907 219 733 393 907 b 994 519 821 907 994 733 b 607 132 994 307 821 132 z m 629 357 b 642 761 447 357 511 761 b 568 658 683 761 631 658 b 625 582 568 658 563 582 b 638 822 731 582 797 822 b 603 225 378 822 314 225 b 793 439 781 225 793 439 l 767 439 b 629 357 767 439 756 357 z "},"¥":{"ha":1133,"x_min":0,"x_max":0,"o":"m 1036 189 b 960 189 1032 189 1001 189 l 960 242 b 1036 242 1001 242 1032 242 b 1036 353 1056 242 1058 353 b 960 353 1032 353 1001 353 l 960 1024 b 872 1049 960 1040 915 1049 b 786 1024 829 1049 786 1040 l 786 939 b 574 560 767 786 682 560 b 578 933 500 560 539 824 b 611 1050 693 958 703 1050 b 492 1001 554 1050 515 1026 b 174 507 -42 992 -32 507 b 329 679 335 507 329 679 b 446 922 201 679 243 890 b 543 367 321 669 326 367 b 786 547 663 367 738 447 l 786 353 b 674 353 726 353 679 353 b 674 242 654 353 651 242 b 786 242 679 242 728 242 l 786 189 b 674 189 726 189 679 189 b 674 78 654 189 651 78 b 786 78 679 78 728 78 l 786 3 b 874 -22 786 -14 829 -22 b 960 3 917 -22 960 -14 l 960 78 b 1036 78 1001 78 1032 78 b 1036 189 1056 78 1058 189 z "},"^":{"ha":1126,"x_min":0,"x_max":0,"o":"m 535 861 l 901 494 b 1024 617 925 471 1047 593 l 617 1024 b 536 1054 594 1044 565 1054 b 453 1024 506 1054 476 1043 l 46 617 b 168 494 22 593 144 471 z "},"™":{"ha":992,"x_min":0,"x_max":0,"o":"m 424 1125 b 231 1075 424 1125 399 1075 b 101 849 -1 1075 14 849 b 168 921 169 849 168 921 b 218 1024 114 921 132 1010 b 190 833 200 979 190 917 b 160 749 190 800 192 749 b 133 776 143 749 133 776 b 151 596 54 776 44 596 b 261 790 224 596 261 674 b 271 1025 261 901 250 982 b 372 1015 315 1022 332 1015 b 424 1125 482 1015 469 1125 z m 890 765 l 869 765 b 839 701 869 765 860 701 b 826 733 826 701 826 722 b 826 861 826 760 826 847 b 761 1038 826 917 826 1038 b 686 946 721 1038 699 993 b 646 1021 683 986 672 1021 b 586 967 619 1021 600 997 b 600 1028 588 992 592 1013 b 615 1076 650 1039 653 1076 b 564 1057 590 1076 575 1068 b 429 849 339 1053 343 849 b 496 921 497 849 496 921 b 546 1024 442 921 460 1010 b 518 833 528 979 518 917 b 488 749 518 800 519 749 b 461 776 471 749 461 776 b 479 596 382 776 372 596 b 589 761 544 596 583 661 b 624 947 589 761 608 947 b 631 711 636 947 631 711 b 668 701 631 704 649 701 b 704 711 686 701 704 704 b 739 951 704 711 715 951 b 753 861 756 951 753 899 b 753 722 753 849 753 764 b 810 596 753 681 753 596 b 890 765 893 596 890 765 z "},"?":{"ha":667,"x_min":0,"x_max":0,"o":"m 344 722 b 267 808 313 719 267 738 b 349 908 267 872 308 908 b 428 803 389 908 428 875 b 213 283 428 563 213 586 b 299 258 213 267 256 258 b 385 283 342 258 385 267 b 625 799 385 533 625 551 b 339 1050 625 967 483 1050 b 43 792 192 1050 43 963 b 214 592 43 671 114 592 b 344 722 364 592 344 722 z m 299 208 b 193 104 240 208 193 163 b 299 0 193 47 240 0 b 403 104 356 0 403 47 b 299 208 403 163 356 208 z "},"þ":{"ha":782,"x_min":0,"x_max":0,"o":"m 533 872 b 464 924 526 899 507 924 b 292 872 397 924 340 904 l 292 1024 b 204 1049 292 1040 247 1049 b 119 1024 161 1049 119 1040 l 119 25 b 207 0 119 8 164 0 b 292 25 250 0 292 8 l 292 151 b 411 125 326 135 365 125 b 533 872 825 125 771 857 z m 421 274 b 449 793 288 274 267 690 b 421 274 568 756 571 274 z "},"#":{"ha":881,"x_min":0,"x_max":0,"o":"m 824 789 b 732 789 819 789 785 789 l 771 1024 b 688 1049 774 1040 731 1049 b 599 1024 644 1049 601 1040 l 560 789 b 457 789 526 789 492 789 l 496 1024 b 411 1049 499 1040 456 1049 b 322 1024 368 1049 325 1040 l 285 789 b 167 789 218 789 171 789 b 167 679 149 789 144 679 b 267 679 171 679 210 679 l 215 361 b 99 361 149 361 103 361 b 99 250 81 361 76 250 b 197 250 103 250 140 250 l 161 25 b 244 0 158 8 201 0 b 333 25 288 0 331 8 l 369 250 b 472 250 403 250 439 250 l 436 25 b 519 0 433 8 476 0 b 608 25 563 0 606 8 l 644 250 b 756 250 708 250 751 250 b 756 361 774 250 778 361 b 663 361 751 361 715 361 l 715 679 b 824 679 776 679 819 679 b 824 789 842 679 846 789 z m 490 361 b 388 361 457 361 422 361 l 439 679 b 542 679 474 679 508 679 z "},"%":{"ha":850,"x_min":0,"x_max":0,"o":"m 604 569 b 504 531 564 569 531 554 l 585 1024 b 500 1049 588 1040 544 1049 b 411 1024 457 1049 414 1040 l 388 875 b 229 1047 365 972 313 1047 b 224 478 -18 1047 -21 478 b 332 532 268 478 304 499 l 250 25 b 333 0 247 8 290 0 b 422 25 376 0 419 8 l 440 136 b 599 0 468 58 521 0 b 604 569 835 0 831 569 z m 226 672 b 233 906 174 672 179 906 b 226 672 282 906 283 672 z m 600 194 b 607 428 547 194 553 428 b 600 194 657 428 658 194 z "},"Þ":{"ha":764,"x_min":0,"x_max":0,"o":"m 379 772 b 292 772 347 772 317 772 l 292 1024 b 204 1049 292 1040 247 1049 b 119 1024 161 1049 119 1040 l 119 25 b 207 0 119 8 164 0 b 292 25 250 0 292 8 l 292 304 b 417 304 329 304 372 304 b 697 574 621 304 697 447 b 379 772 697 711 606 772 z m 417 501 b 292 501 397 501 346 501 l 292 668 b 417 668 329 668 375 668 b 507 583 469 668 507 621 b 417 501 507 550 492 501 z "},"}":{"ha":550,"x_min":0,"x_max":0,"o":"m 58 -28 b 58 -139 36 -28 39 -139 b 185 -139 60 -139 183 -139 b 358 229 385 -139 358 106 b 465 525 358 354 465 422 b 358 860 465 642 358 692 b 185 1188 358 1026 382 1188 b 58 1188 183 1188 60 1188 b 58 1076 36 1188 39 1076 b 111 1076 60 1076 92 1076 b 185 864 185 1076 185 990 b 269 525 185 601 269 525 b 185 229 269 525 185 449 b 124 -28 185 75 186 -28 b 58 -28 100 -28 60 -28 z "},"¿":{"ha":747,"x_min":0,"x_max":0,"o":"m 428 840 b 532 944 485 840 532 888 b 428 1050 532 1003 485 1050 b 322 944 369 1050 322 1003 b 428 840 322 888 369 840 z m 381 328 b 460 242 413 331 460 313 b 376 142 460 176 418 142 b 297 247 336 142 297 175 b 513 767 297 486 513 464 b 426 790 513 783 469 790 b 340 767 383 790 340 783 b 101 250 340 515 101 497 b 386 0 101 82 243 0 b 683 258 533 0 683 86 b 511 457 683 379 611 457 b 381 328 363 457 381 328 z "},"§":{"ha":790,"x_min":0,"x_max":0,"o":"m 717 521 b 496 815 717 721 496 736 b 533 851 496 839 514 851 b 567 836 546 851 558 846 b 439 992 594 865 586 992 b 303 883 347 992 303 936 b 351 769 303 836 322 800 b 275 672 300 751 275 711 b 496 385 275 514 496 479 b 397 308 496 332 444 308 b 324 354 358 308 324 325 b 356 394 324 382 340 394 b 386 365 371 394 386 383 b 424 419 386 365 424 365 b 303 506 424 474 368 506 b 100 285 211 506 100 442 b 374 49 100 124 233 49 b 688 308 526 49 688 139 b 675 386 688 339 683 364 b 717 521 701 424 717 468 z m 468 603 b 510 639 468 628 489 640 b 525 597 519 625 525 613 b 506 550 525 576 517 561 b 468 603 483 567 468 582 z "},"$":{"ha":756,"x_min":0,"x_max":0,"o":"m 689 415 b 483 710 689 614 483 629 b 522 744 483 733 503 744 b 554 731 533 744 546 740 b 499 892 575 753 572 850 l 499 1024 b 411 1049 499 1040 454 1049 b 326 1024 368 1049 326 1040 l 326 888 b 260 778 278 860 260 813 b 497 490 260 619 497 586 b 399 414 497 438 444 414 b 324 460 360 414 324 431 b 356 500 324 488 340 500 b 386 471 371 500 386 489 b 424 526 386 471 424 471 b 303 613 424 581 368 613 b 100 390 211 613 100 549 b 326 158 100 249 206 174 l 326 25 b 414 0 326 8 371 0 b 499 25 457 0 499 8 l 499 175 b 689 415 604 210 689 292 z "},")":{"ha":601,"x_min":0,"x_max":0,"o":"m 68 -32 b 68 -168 36 -32 33 -168 b 68 1215 688 -168 688 1215 b 68 1079 36 1215 40 1079 b 68 -32 443 1079 433 -32 z "},"&":{"ha":764,"x_min":0,"x_max":0,"o":"m 653 179 b 690 365 678 232 690 296 b 622 456 690 440 653 456 b 581 447 600 456 581 447 b 553 357 581 447 576 403 b 425 576 508 431 463 506 b 564 828 494 646 564 718 b 389 1047 564 978 478 1047 b 201 829 296 1047 201 971 b 261 589 201 760 225 676 b 92 261 176 503 92 403 b 368 0 92 185 139 0 b 544 50 436 0 496 18 b 597 -92 576 -12 597 -62 b 650 -99 597 -92 622 -99 b 722 -37 683 -99 722 -87 b 653 179 722 22 693 97 z m 435 831 b 368 696 435 783 407 740 b 336 829 349 744 336 790 b 386 917 336 888 361 917 b 435 831 411 917 435 889 z m 388 250 b 292 347 321 250 292 300 b 322 457 292 389 304 424 b 432 256 357 388 394 319 b 388 250 418 251 404 250 z "},"¤":{"ha":650,"x_min":0,"x_max":0,"o":"m 564 342 l 507 399 b 535 501 525 429 535 464 b 507 606 535 540 525 575 b 564 663 539 639 561 660 b 486 740 576 676 501 757 l 429 685 b 325 711 399 701 363 711 b 221 685 288 711 251 701 l 165 740 b 86 663 151 754 71 678 l 143 606 b 115 501 125 575 115 540 b 143 399 115 464 125 429 l 86 342 b 165 264 74 328 149 247 l 221 319 b 325 292 251 303 288 292 b 429 319 363 292 399 303 l 486 264 b 564 342 499 250 579 326 z m 236 501 b 325 590 236 551 276 590 b 414 501 374 590 414 551 b 325 413 414 453 374 413 b 236 501 276 413 236 453 z "},"«":{"ha":969,"x_min":0,"x_max":0,"o":"m 318 358 l 583 725 b 461 847 606 749 485 872 l 156 440 b 156 278 115 394 118 324 l 461 -131 b 583 -8 485 -154 606 -31 z m 629 358 l 893 725 b 771 847 917 749 796 872 l 467 440 b 467 278 425 394 428 324 l 771 -131 b 893 -8 796 -154 917 -31 z "},"†":{"ha":507,"x_min":0,"x_max":0,"o":"m 421 735 b 325 735 415 735 376 735 l 325 1024 b 238 1049 325 1040 281 1049 b 153 1024 194 1049 153 1040 l 153 735 b 57 735 101 735 63 735 b 57 625 39 735 35 625 b 153 625 63 625 101 625 l 153 25 b 240 0 153 8 197 0 b 325 25 283 0 325 8 l 325 625 b 421 625 376 625 415 625 b 421 735 439 625 443 735 z "},"£":{"ha":850,"x_min":0,"x_max":0,"o":"m 471 242 b 325 222 415 238 367 231 b 396 468 371 300 389 372 b 482 468 443 468 478 468 b 482 578 501 468 504 578 b 399 578 478 578 443 578 b 399 671 399 607 399 638 b 506 910 399 758 410 910 b 543 772 571 910 579 836 b 622 710 543 772 557 710 b 499 1047 750 710 768 1047 b 217 697 344 1047 217 933 b 215 578 217 656 217 615 b 119 578 164 578 124 578 b 119 468 100 578 97 468 b 207 468 124 468 160 468 b 125 229 194 344 168 261 b 125 6 58 181 85 -8 b 439 53 201 32 319 53 b 715 1 538 53 638 38 b 471 242 807 47 844 271 z "},"»":{"ha":876,"x_min":0,"x_max":0,"o":"m 356 -8 b 478 -131 333 -31 454 -154 l 783 278 b 783 440 821 324 825 394 l 478 847 b 356 725 454 872 333 749 l 621 358 z m 46 -8 b 168 -131 22 -31 143 -154 l 472 278 b 472 440 511 324 514 394 l 168 847 b 46 725 143 872 22 749 l 310 358 z "},"{":{"ha":567,"x_min":0,"x_max":0,"o":"m 483 -28 b 418 -28 482 -28 442 -28 b 357 229 356 -28 357 75 b 272 525 357 449 272 525 b 357 864 272 525 357 601 b 431 1076 357 990 357 1076 b 483 1076 451 1076 483 1076 b 483 1188 503 1076 506 1188 b 357 1188 482 1188 358 1188 b 185 860 160 1188 185 1026 b 76 525 185 692 76 642 b 185 229 76 422 185 354 b 357 -139 185 106 157 -139 b 483 -139 358 -139 483 -139 b 483 -28 503 -139 506 -28 z "},"]":{"ha":447,"x_min":0,"x_max":0,"o":"m 58 -28 b 58 -139 36 -28 39 -139 l 343 -139 b 343 1188 343 -118 343 1188 l 58 1188 b 58 1076 36 1188 39 1076 l 171 1076 l 171 -28 z "},"(":{"ha":675,"x_min":0,"x_max":0,"o":"m 567 -32 b 567 1079 200 -32 190 1079 b 567 1215 593 1079 597 1215 b 567 -168 -54 1215 -54 -168 b 567 -32 600 -168 597 -32 z "},"ˆ":{"ha":797,"x_min":0,"x_max":0,"o":"m 369 925 l 614 682 b 694 763 629 667 711 747 l 424 1033 b 371 1054 408 1047 389 1054 b 315 1033 350 1054 331 1047 l 44 763 b 125 682 28 747 110 667 z "},"×":{"ha":668,"x_min":0,"x_max":0,"o":"m 544 390 b 413 522 540 394 481 454 b 544 653 481 590 540 649 b 467 731 558 667 482 747 b 335 600 461 726 403 668 b 203 731 267 668 207 728 b 125 653 190 744 110 668 b 257 522 131 649 189 589 b 125 390 189 454 129 394 b 203 313 113 376 188 296 b 335 443 208 317 267 376 b 467 313 403 375 463 317 b 544 390 479 299 560 375 z "},"€":{"ha":764,"x_min":0,"x_max":0,"o":"m 658 135 b 396 393 518 135 429 251 b 456 393 429 393 453 393 b 456 504 475 393 478 504 b 382 504 451 504 421 504 b 382 564 381 524 381 544 b 456 564 422 564 451 564 b 456 675 475 564 478 675 b 400 675 451 675 431 675 b 658 911 435 807 521 911 b 658 1047 686 911 690 1047 b 211 675 410 1047 260 878 b 126 675 165 675 131 675 b 126 564 107 675 104 564 b 194 564 131 564 158 564 b 194 504 194 544 193 524 b 126 504 157 504 131 504 b 126 393 107 504 104 393 b 207 393 132 393 164 393 b 658 -1 250 181 400 -1 b 658 135 693 -1 690 135 z "},"[":{"ha":499,"x_min":0,"x_max":0,"o":"m 413 -28 l 300 -28 l 300 1076 l 413 1076 b 413 1188 432 1076 435 1188 l 128 1188 b 128 -139 128 1188 128 -118 l 413 -139 b 413 -28 432 -139 435 -28 z "},"˜":{"ha":564,"x_min":0,"x_max":0,"o":"m 443 1047 b 349 1003 410 1014 379 1003 b 142 1049 286 1003 224 1049 b 63 893 8 1049 40 871 b 156 935 93 925 124 935 b 365 896 217 935 283 896 b 443 1047 507 896 457 1061 z "},"ˇ":{"ha":797,"x_min":0,"x_max":0,"o":"m 369 807 l 125 1051 b 44 971 110 1067 28 986 l 315 700 b 368 679 331 686 350 679 b 424 700 389 679 408 686 l 694 971 b 614 1051 711 986 629 1067 z "},"“":{"ha":542,"x_min":0,"x_max":0,"o":"m 325 825 b 407 908 369 825 407 863 b 383 967 407 931 399 951 b 435 1008 382 988 392 1008 b 435 1047 435 1008 449 1029 b 325 825 192 1047 203 825 z m 126 825 b 210 908 172 825 210 863 b 186 967 210 931 201 951 b 238 1008 185 988 194 1008 b 238 1047 238 1008 251 1029 b 126 825 -6 1047 6 825 z "},"”":{"ha":542,"x_min":0,"x_max":0,"o":"m 160 1047 b 76 965 114 1047 76 1011 b 100 907 76 942 85 922 b 49 865 101 885 92 865 b 49 825 49 865 35 844 b 160 1047 292 825 281 1047 z m 357 1047 b 274 965 311 1047 274 1011 b 297 907 274 942 283 922 b 247 865 300 885 289 865 b 247 825 247 865 232 844 b 357 1047 489 825 478 1047 z "},"²":{"ha":419,"x_min":0,"x_max":0,"o":"m 276 729 b 215 699 276 729 253 699 b 160 706 189 699 174 703 b 314 940 197 764 314 817 b 190 1049 314 1013 253 1049 b 57 926 125 1049 57 1008 b 131 851 57 888 83 851 b 197 922 201 851 197 922 b 154 950 179 919 154 919 b 196 996 154 981 175 996 b 243 942 219 996 243 978 b 96 715 243 833 140 786 b 90 606 25 704 26 606 b 140 638 114 606 131 619 b 236 606 179 626 194 606 b 276 729 342 606 336 729 z "},"\"":{"ha":542,"x_min":0,"x_max":0,"o":"m 160 1047 b 76 965 114 1047 76 1011 b 100 907 76 942 85 922 b 49 865 101 885 92 865 b 49 825 49 865 35 844 b 160 1047 292 825 281 1047 z m 357 1047 b 274 965 311 1047 274 1011 b 297 907 274 942 283 922 b 247 865 300 885 289 865 b 247 825 247 865 232 844 b 357 1047 489 825 478 1047 z "},"*":{"ha":436,"x_min":0,"x_max":0,"o":"m 286 886 l 335 914 b 288 994 335 914 331 956 l 235 965 l 235 1025 b 190 1033 235 1025 218 1033 b 143 1025 178 1033 161 1031 l 143 963 l 86 992 b 43 910 86 992 53 965 l 92 883 l 44 856 b 90 775 44 856 47 814 l 143 806 l 143 744 b 188 738 143 744 160 738 b 235 744 200 738 217 739 l 235 808 l 292 779 b 335 861 292 779 325 804 z "},"¨":{"ha":550,"x_min":0,"x_max":0,"o":"m 132 1047 b 43 957 83 1047 43 1007 b 132 867 43 908 83 867 b 222 957 182 867 222 908 b 132 1047 222 1007 182 1047 z m 360 1047 b 269 957 310 1047 269 1007 b 360 867 269 908 310 867 b 450 957 408 867 450 908 b 360 1047 450 1007 408 1047 z "},"‹":{"ha":658,"x_min":0,"x_max":0,"o":"m 318 358 l 582 725 b 461 847 606 749 485 872 l 156 440 b 156 278 114 394 118 324 l 461 -131 b 582 -8 485 -154 606 -31 z "},"<":{"ha":758,"x_min":0,"x_max":0,"o":"m 311 358 l 678 725 b 556 847 701 749 581 872 l 149 440 b 149 278 107 394 111 324 l 556 -131 b 678 -8 581 -154 701 -31 z "},"³":{"ha":417,"x_min":0,"x_max":0,"o":"m 251 879 b 175 1047 321 933 292 1047 b 104 904 29 1047 21 904 b 172 957 156 904 172 957 b 179 1010 132 957 138 1010 b 186 899 225 1010 226 940 b 176 899 183 899 179 899 b 160 851 94 899 97 851 b 201 856 175 851 189 853 b 194 699 263 811 261 699 b 211 751 147 699 136 751 b 151 818 211 751 233 818 b 168 607 13 818 -4 607 b 251 879 331 607 360 813 z "},"º":{"ha":431,"x_min":0,"x_max":0,"o":"m 243 1019 b 208 1049 243 1033 236 1049 b 179 607 -12 1049 -6 607 b 243 1019 372 607 365 1018 z m 185 713 b 196 992 111 713 92 943 b 185 713 264 981 268 713 z "},"'":{"ha":344,"x_min":0,"x_max":0,"o":"m 160 1047 b 76 965 114 1047 76 1011 b 100 907 76 942 86 922 b 50 865 103 885 92 865 b 50 825 50 865 35 844 b 160 1047 292 825 281 1047 z "},"°":{"ha":467,"x_min":0,"x_max":0,"o":"m 204 722 b 367 885 294 722 367 796 b 204 1047 367 975 294 1047 b 42 885 115 1047 42 975 b 204 722 42 796 115 722 z m 204 951 b 269 885 240 951 269 921 b 204 819 269 849 240 819 b 139 885 168 819 139 849 b 204 951 139 921 168 951 z "},"˚":{"ha":467,"x_min":0,"x_max":0,"o":"m 204 722 b 367 885 294 722 367 796 b 204 1047 367 975 294 1047 b 42 885 115 1047 42 975 b 204 722 42 796 115 722 z m 204 951 b 269 885 240 951 269 921 b 204 819 269 849 240 819 b 139 885 168 819 139 849 b 204 951 139 921 168 951 z "},"¹":{"ha":256,"x_min":0,"x_max":0,"o":"m 82 1039 b 43 964 82 1039 69 994 b 82 944 43 964 58 943 l 82 617 b 118 607 82 610 100 607 b 154 617 136 607 154 610 l 154 1039 b 118 1050 154 1046 136 1050 b 82 1039 100 1050 82 1046 z "},"’":{"ha":344,"x_min":0,"x_max":0,"o":"m 160 1047 b 76 965 114 1047 76 1011 b 100 907 76 942 86 922 b 50 865 103 885 92 865 b 50 825 50 865 35 844 b 160 1047 292 825 281 1047 z "},"`":{"ha":367,"x_min":0,"x_max":0,"o":"m 264 904 b 122 1046 253 915 132 1036 b 44 968 110 1060 29 983 b 186 826 56 957 176 836 b 264 904 199 813 279 889 z "},"´":{"ha":367,"x_min":0,"x_max":0,"o":"m 44 904 b 122 826 29 889 110 813 b 264 968 132 836 253 957 b 186 1046 279 983 199 1060 b 44 904 176 1036 56 915 z "},"˙":{"ha":322,"x_min":0,"x_max":0,"o":"m 222 944 b 132 1033 222 993 182 1033 b 42 944 82 1033 42 993 b 132 854 42 894 82 854 b 222 944 182 854 222 894 z "},"¡":{"ha":388,"x_min":0,"x_max":0,"o":"m 217 840 b 321 944 275 840 321 886 b 217 1049 321 1001 275 1049 b 113 944 160 1049 113 1001 b 217 840 113 886 160 840 z m 131 779 l 131 31 b 218 6 131 14 175 6 b 303 31 261 6 303 14 l 303 779 b 215 804 303 796 258 804 b 131 779 172 804 131 796 z "},"/":{"ha":492,"x_min":0,"x_max":0,"o":"m 240 1024 l 79 25 b 163 0 76 8 119 0 b 251 25 206 0 249 8 l 414 1024 b 329 1049 417 1040 374 1049 b 240 1024 286 1049 243 1040 z "},"!":{"ha":406,"x_min":0,"x_max":0,"o":"m 303 275 l 303 1024 b 215 1049 303 1040 258 1049 b 131 1024 172 1049 131 1040 l 131 275 b 218 250 131 258 175 250 b 303 275 261 250 303 258 z m 217 215 b 113 111 160 215 113 168 b 217 6 113 53 160 6 b 321 111 275 6 321 53 b 217 215 321 168 275 215 z "},"+":{"ha":681,"x_min":0,"x_max":0,"o":"m 582 576 b 426 576 575 576 508 576 l 426 779 b 339 804 426 796 382 804 b 254 779 296 804 254 796 l 254 576 b 99 576 171 576 104 576 b 99 467 81 576 78 467 b 254 467 106 467 172 467 l 254 264 b 342 239 254 247 299 239 b 426 264 385 239 426 247 l 426 467 b 582 467 510 467 576 467 b 582 576 600 467 604 576 z "},"¢":{"ha":713,"x_min":0,"x_max":0,"o":"m 658 572 l 608 572 b 417 379 608 572 589 379 b 376 721 225 379 292 721 b 394 617 407 721 421 663 b 442 594 394 617 400 594 b 442 890 579 594 578 831 l 442 1024 b 354 1049 442 1040 397 1049 b 269 1024 311 1049 269 1040 l 269 874 b 269 179 56 749 32 254 l 269 25 b 357 0 269 8 314 0 b 442 25 400 0 442 8 l 442 188 b 658 572 650 268 658 572 z "},"•":{"ha":439,"x_min":0,"x_max":0,"o":"m 354 551 b 219 688 354 626 294 688 b 85 551 144 688 85 626 b 219 417 85 476 144 417 b 354 551 294 417 354 476 z "},"‘":{"ha":344,"x_min":0,"x_max":0,"o":"m 126 825 b 210 908 172 825 210 863 b 186 967 210 931 201 951 b 238 1008 185 988 194 1008 b 238 1047 238 1008 251 1029 b 126 825 -6 1047 6 825 z "},"|":{"ha":396,"x_min":0,"x_max":0,"o":"m 126 1024 l 126 25 b 214 0 126 8 171 0 b 299 25 257 0 299 8 l 299 1024 b 211 1049 299 1040 254 1049 b 126 1024 168 1049 126 1040 z "},">":{"ha":669,"x_min":0,"x_max":0,"o":"m 413 358 l 46 -8 b 168 -131 22 -31 143 -154 l 575 278 b 575 440 617 324 613 394 l 168 847 b 46 725 143 872 22 749 z "},"=":{"ha":561,"x_min":0,"x_max":0,"o":"m 99 385 b 463 385 115 385 449 385 b 463 496 481 385 485 496 b 99 496 446 496 113 496 b 99 385 81 496 76 385 z m 463 332 b 99 332 446 332 113 332 b 99 221 81 332 76 221 b 463 221 115 221 449 221 b 463 332 481 221 485 332 z "},"\\":{"ha":419,"x_min":0,"x_max":0,"o":"m 215 1024 b 126 1049 213 1040 169 1049 b 43 1024 83 1049 40 1040 l 204 25 b 293 0 207 8 250 0 b 378 25 338 0 381 8 z "},"˛":{"ha":431,"x_min":0,"x_max":0,"o":"m 331 -11 b 331 99 354 -11 357 99 b 175 -439 -112 99 -97 -439 b 343 -254 372 -439 343 -254 b 331 -11 92 -254 121 -11 z "},"¸":{"ha":356,"x_min":0,"x_max":0,"o":"m 193 -44 b 242 29 213 -15 235 15 b 168 79 253 47 208 79 b 125 60 151 79 136 74 b 13 -90 89 13 13 -90 b -103 -261 181 -90 211 -261 b 33 -417 -146 -333 -119 -417 b 193 -44 336 -417 400 -68 z "},"ª":{"ha":433,"x_min":0,"x_max":0,"o":"m 333 910 l 313 910 b 281 844 313 910 303 844 b 269 878 269 844 269 865 b 269 1035 269 904 269 1021 b 233 1046 269 1042 251 1046 b 196 1035 214 1046 196 1042 b 196 1024 196 1033 196 1029 b 142 1049 185 1038 168 1049 b 124 739 15 1049 8 739 b 199 814 161 739 185 772 b 253 739 203 776 215 739 b 333 910 336 739 333 910 z m 143 844 b 147 972 115 844 118 972 b 143 844 174 972 175 844 z "},"›":{"ha":565,"x_min":0,"x_max":0,"o":"m 46 -8 b 168 -131 22 -31 143 -154 l 472 278 b 472 440 510 324 514 394 l 168 847 b 46 725 143 872 22 749 l 310 358 z "},";":{"ha":375,"x_min":0,"x_max":0,"o":"m 201 522 b 292 613 251 522 292 563 b 201 703 292 663 251 703 b 111 613 151 703 111 663 b 201 522 111 563 151 522 z m 200 186 b 117 103 154 186 117 149 b 140 46 117 81 126 60 b 90 4 143 24 133 4 b 90 -36 90 4 76 -17 b 200 186 332 -36 322 186 z "},":":{"ha":347,"x_min":0,"x_max":0,"o":"m 174 522 b 264 613 224 522 264 563 b 174 703 264 663 224 703 b 83 613 124 703 83 663 b 174 522 83 563 124 522 z m 174 186 b 83 96 124 186 83 146 b 174 6 83 46 124 6 b 264 96 224 6 264 46 b 174 186 264 146 224 186 z "},"·":{"ha":347,"x_min":0,"x_max":0,"o":"m 264 551 b 174 642 264 601 224 642 b 83 551 124 642 83 601 b 174 461 83 501 124 461 b 264 551 224 461 264 501 z "},"—":{"ha":658,"x_min":0,"x_max":0,"o":"m 560 578 b 99 578 543 578 113 578 b 99 468 81 578 76 468 b 560 468 115 468 546 468 b 560 578 578 468 582 578 z "},"–":{"ha":611,"x_min":0,"x_max":0,"o":"m 511 578 b 100 578 496 578 114 578 b 100 468 81 578 78 468 b 511 468 117 468 497 468 b 511 578 531 468 533 578 z "},"-":{"ha":561,"x_min":0,"x_max":0,"o":"m 463 578 b 99 578 446 578 113 578 b 99 468 81 578 76 468 b 463 468 115 468 449 468 b 463 578 481 468 485 578 z "},"„":{"ha":489,"x_min":0,"x_max":0,"o":"m 158 186 b 75 103 113 186 75 149 b 99 46 75 81 85 60 b 49 4 101 24 92 4 b 49 -36 49 4 35 -17 b 158 186 290 -36 281 186 z m 363 186 b 281 103 317 186 281 149 b 304 46 281 81 289 60 b 253 4 306 24 296 4 b 253 -36 253 4 239 -17 b 363 186 494 -36 485 186 z "},",":{"ha":286,"x_min":0,"x_max":0,"o":"m 160 186 b 76 103 114 186 76 149 b 100 46 76 81 86 60 b 50 4 103 24 92 4 b 50 -36 50 4 35 -17 b 160 186 292 -36 281 186 z "},"‚":{"ha":286,"x_min":0,"x_max":0,"o":"m 160 186 b 76 103 114 186 76 149 b 100 46 76 81 86 60 b 50 4 103 24 92 4 b 50 -36 50 4 35 -17 b 160 186 292 -36 281 186 z "},".":{"ha":264,"x_min":0,"x_max":0,"o":"m 222 90 b 132 181 222 140 182 181 b 42 90 82 181 42 140 b 132 0 42 40 82 0 b 222 90 182 0 222 40 z "},"_":{"ha":478,"x_min":0,"x_max":0,"o":"m 421 0 b 57 0 404 0 71 0 b 57 -111 39 0 35 -111 b 421 -111 74 -111 407 -111 b 421 0 439 -111 443 0 z "},"…":{"ha":908,"x_min":0,"x_max":0,"o":"m 222 90 b 132 181 222 140 182 181 b 42 90 82 181 42 140 b 132 0 42 40 82 0 b 222 90 182 0 222 40 z m 544 90 b 454 181 544 140 504 181 b 364 90 404 181 364 140 b 454 0 364 40 404 0 b 544 90 504 0 544 40 z m 867 90 b 776 181 867 140 826 181 b 686 90 726 181 686 140 b 776 0 686 40 726 0 b 867 90 826 0 867 40 z "},"~":{"ha":588,"x_min":0,"x_max":0,"o":"m 485 601 b 389 557 451 568 421 557 b 183 603 328 557 265 603 b 104 449 50 603 82 426 b 197 490 135 479 165 490 b 406 451 258 490 324 451 b 485 601 547 451 499 617 z "},"ƒ":{"ha":483,"x_min":0,"x_max":0,"o":"m 533 404 l 483 404 b 339 163 483 404 457 235 b 217 221 307 199 267 221 b 140 201 185 221 160 214 b 253 553 140 250 146 553 b 271 449 283 553 299 494 b 318 426 271 449 278 426 b 253 735 476 426 451 735 b -24 139 97 735 -15 572 b 228 -515 -33 -328 54 -515 b 394 67 417 -515 476 -150 b 533 404 526 181 533 404 z m 222 -253 b 150 33 181 -253 160 -76 b 261 1 176 15 213 3 b 222 -253 272 -82 275 -253 z "},"":{"ha":4051,"x_min":0,"x_max":0,"o":"m 207 431 b 250 0 19 431 -6 0 b 508 419 410 0 500 168 b 758 0 588 349 593 11 b 956 399 949 0 956 351 b 1096 0 956 69 1011 0 b 1272 171 1183 0 1239 75 b 1681 -285 1296 -212 1429 -285 b 2310 -224 1924 -285 2060 -224 b 2600 -379 2592 -224 2600 -379 b 2514 -36 2839 -379 2913 -36 b 1688 -112 2207 -36 1988 -112 b 1440 326 1510 -112 1440 -82 b 1440 700 1440 390 1440 668 b 1353 725 1440 717 1396 725 b 1268 700 1310 725 1268 717 b 1268 674 1268 696 1268 686 b 1139 735 1242 707 1201 735 b 904 394 997 735 918 568 b 810 250 900 363 876 250 b 621 483 735 250 713 403 b 664 1086 910 593 932 965 b 715 1094 679 1092 696 1094 b 817 1017 796 1094 817 1017 b 707 1244 910 1017 942 1244 b 467 1125 614 1244 531 1210 b 132 599 -83 1125 -76 599 b 289 771 293 599 289 771 b 406 1014 160 771 201 983 b 340 565 364 910 340 763 b 269 363 340 483 343 363 b 207 431 231 363 207 431 z m 3899 613 b 3743 518 3781 613 3743 518 b 3731 142 3838 518 3814 142 b 3685 326 3689 142 3685 210 b 3685 825 3685 367 3685 628 b 3768 832 3711 829 3739 832 b 3901 765 3890 832 3901 765 b 3821 985 3976 765 4026 985 b 3685 960 3772 985 3728 974 b 3685 1047 3685 1008 3685 1042 b 3597 1072 3685 1064 3640 1072 b 3513 1047 3554 1072 3513 1064 b 3513 903 3513 1039 3513 982 b 3424 892 3483 897 3454 892 b 3319 972 3336 892 3319 972 b 3401 782 3192 972 3190 782 b 3513 789 3443 782 3479 785 b 3513 360 3513 638 3513 457 l 3511 404 b 3438 250 3511 404 3489 250 b 3408 326 3408 250 3408 300 b 3408 646 3408 390 3408 614 b 3313 715 3408 700 3399 715 b 3142 715 3257 715 3192 715 b 3064 818 3131 776 3107 818 b 3086 569 2968 818 2976 613 b 3063 363 3082 500 3075 419 b 2879 211 3046 306 3000 211 b 2778 261 2832 211 2799 231 b 2824 250 2790 254 2806 250 b 2814 735 3043 250 3096 735 b 2553 392 2657 735 2567 567 b 2482 251 2547 356 2525 251 b 2453 328 2453 251 2453 300 b 2453 513 2453 392 2453 479 b 2322 735 2453 676 2429 735 b 2176 626 2256 735 2208 693 b 2176 767 2176 690 2176 735 b 2257 758 2204 761 2231 758 b 2308 1192 2626 758 2656 1192 b 2028 996 2167 1192 2069 1117 b 1526 1201 1879 1088 1708 1201 b 1451 771 1182 1201 1161 771 b 1606 828 1556 771 1606 828 b 1718 922 1606 828 1567 922 b 2004 824 1793 922 1894 869 b 2004 369 2004 756 2004 517 b 1813 211 2001 376 1972 211 b 1772 553 1619 211 1688 553 b 1790 449 1801 553 1817 494 b 1836 426 1790 449 1796 426 b 1771 735 1994 426 1969 735 b 1729 1 1443 735 1383 1 b 2004 192 1879 1 1961 94 b 2132 1 2007 90 2024 1 b 2192 39 2188 1 2207 39 b 2176 119 2178 39 2176 81 l 2176 189 b 2256 553 2183 321 2219 553 b 2281 469 2275 553 2281 531 b 2281 303 2281 469 2281 369 b 2415 1 2281 204 2281 1 b 2578 179 2506 1 2553 86 b 2796 0 2613 76 2685 0 b 3114 343 3033 0 3097 232 b 3147 563 3129 400 3143 482 b 3236 514 3206 561 3236 551 b 3236 301 3236 440 3236 354 b 3371 0 3236 203 3236 0 b 3525 149 3451 0 3497 68 b 3694 0 3543 71 3588 0 b 3899 613 4054 0 4172 613 z m 2328 1038 b 2299 879 2442 1038 2415 879 b 2185 908 2263 879 2225 890 b 2328 1038 2206 988 2264 1038 z m 514 532 b 510 532 513 532 511 532 b 565 992 511 746 524 899 b 514 532 726 899 715 593 z m 1143 250 b 1151 551 1075 250 1082 551 b 1143 250 1215 551 1218 250 z m 2815 551 b 2815 371 2869 551 2871 371 b 2815 551 2757 371 2757 551 z "}}}
